<mxfile host="Electron" agent="Mozilla/5.0 (Windows NT 10.0; Win64; x64) AppleWebKit/537.36 (KHTML, like Gecko) draw.io/26.2.2 Chrome/134.0.6998.178 Electron/35.1.2 Safari/537.36" version="26.2.2">
  <diagram name="페이지-1" id="e3yAUTEXAZTKsVc1Ks7p">
    <mxGraphModel dx="1092" dy="825" grid="1" gridSize="10" guides="1" tooltips="1" connect="1" arrows="1" fold="1" page="1" pageScale="1" pageWidth="3300" pageHeight="4681" math="0" shadow="0">
      <root>
        <mxCell id="0" />
        <mxCell id="1" parent="0" />
        <mxCell id="-j0OVdetg2_iClO8KwTa-23" value="" style="strokeWidth=2;html=1;shape=mxgraph.flowchart.start_2;whiteSpace=wrap;" parent="1" vertex="1">
          <mxGeometry x="1580" y="500" width="270" height="240" as="geometry" />
        </mxCell>
        <mxCell id="-j0OVdetg2_iClO8KwTa-22" value="" style="html=1;shadow=0;dashed=0;shape=mxgraph.bootstrap.rrect;rSize=5;strokeColor=#FFBC26;strokeWidth=1;fillColor=none;fontColor=#0085FC;whiteSpace=wrap;align=center;verticalAlign=middle;spacingLeft=0;fontStyle=0;fontSize=16;spacing=5;" parent="1" vertex="1">
          <mxGeometry x="1210" y="1170" width="880" height="450" as="geometry" />
        </mxCell>
        <mxCell id="-j0OVdetg2_iClO8KwTa-14" value="" style="html=1;shadow=0;dashed=0;shape=mxgraph.bootstrap.rrect;rSize=5;strokeColor=#0085FC;strokeWidth=1;fillColor=none;fontColor=#0085FC;whiteSpace=wrap;align=center;verticalAlign=middle;spacingLeft=0;fontStyle=0;fontSize=16;spacing=5;" parent="1" vertex="1">
          <mxGeometry x="450" y="670" width="400" height="450" as="geometry" />
        </mxCell>
        <mxCell id="-j0OVdetg2_iClO8KwTa-8" value="192.168.100.0/24&lt;br&gt;(VLAN 10)" style="html=1;shadow=0;dashed=0;shape=mxgraph.bootstrap.rrect;rSize=5;strokeColor=#0085FC;html=1;whiteSpace=wrap;fillColor=#ffffff;fontColor=#0085FC;verticalAlign=bottom;align=left;spacing=20;spacingBottom=0;fontSize=14;" parent="1" vertex="1">
          <mxGeometry x="460" y="850" width="180" height="130" as="geometry" />
        </mxCell>
        <mxCell id="-j0OVdetg2_iClO8KwTa-9" value="asdf" style="html=1;shadow=0;dashed=0;shape=mxgraph.bootstrap.topButton;rSize=5;perimeter=none;whiteSpace=wrap;fillColor=#F7F7F7;strokeColor=#0085FC;fontColor=#212529;resizeWidth=1;fontSize=18;align=left;spacing=20;" parent="-j0OVdetg2_iClO8KwTa-8" vertex="1">
          <mxGeometry width="180" height="50" relative="1" as="geometry" />
        </mxCell>
        <mxCell id="-j0OVdetg2_iClO8KwTa-12" value="" style="html=1;shadow=0;dashed=0;shape=mxgraph.bootstrap.rrect;rSize=5;strokeColor=#33A64C;html=1;whiteSpace=wrap;fillColor=#ffffff;fontColor=#33A64C;verticalAlign=bottom;align=left;spacing=20;spacingBottom=0;fontSize=14;" parent="1" vertex="1">
          <mxGeometry x="1050" y="842.5" width="230" height="145" as="geometry" />
        </mxCell>
        <mxCell id="-j0OVdetg2_iClO8KwTa-13" value="L2 Switch" style="html=1;shadow=0;dashed=0;shape=mxgraph.bootstrap.topButton;rSize=5;perimeter=none;whiteSpace=wrap;fillColor=#F7F7F7;strokeColor=#33A64C;fontColor=#6C767D;resizeWidth=1;fontSize=18;align=left;spacing=20;" parent="-j0OVdetg2_iClO8KwTa-12" vertex="1">
          <mxGeometry width="230" height="50" relative="1" as="geometry" />
        </mxCell>
        <mxCell id="-j0OVdetg2_iClO8KwTa-15" value="DMZ" style="text;strokeColor=none;align=center;fillColor=none;html=1;verticalAlign=middle;whiteSpace=wrap;rounded=0;" parent="1" vertex="1">
          <mxGeometry x="450" y="670" width="70" height="50" as="geometry" />
        </mxCell>
        <mxCell id="-j0OVdetg2_iClO8KwTa-16" value="&lt;b&gt;&lt;font style=&quot;font-size: 20px&quot;&gt;Warning card title&lt;/font&gt;&lt;/b&gt;&lt;br style=&quot;font-size: 14px&quot;&gt;&lt;br style=&quot;font-size: 14px&quot;&gt;Some quick example text to build on the card title and make up the bulk of the card&#39;s content." style="html=1;shadow=0;dashed=0;shape=mxgraph.bootstrap.rrect;rSize=5;strokeColor=#FFBC26;html=1;whiteSpace=wrap;fillColor=#ffffff;fontColor=#FFBC26;verticalAlign=bottom;align=left;spacing=20;spacingBottom=0;fontSize=14;" parent="1" vertex="1">
          <mxGeometry x="1400" y="1300" width="250" height="180" as="geometry" />
        </mxCell>
        <mxCell id="-j0OVdetg2_iClO8KwTa-17" value="W10" style="html=1;shadow=0;dashed=0;shape=mxgraph.bootstrap.topButton;rSize=5;perimeter=none;whiteSpace=wrap;fillColor=#F7F7F7;strokeColor=#FFBC26;fontColor=#6C767D;resizeWidth=1;fontSize=18;align=left;spacing=20;" parent="-j0OVdetg2_iClO8KwTa-16" vertex="1">
          <mxGeometry width="250" height="50" relative="1" as="geometry" />
        </mxCell>
        <mxCell id="-j0OVdetg2_iClO8KwTa-18" value="&lt;b&gt;&lt;font style=&quot;font-size: 20px&quot;&gt;Warning card title&lt;/font&gt;&lt;/b&gt;&lt;br style=&quot;font-size: 14px&quot;&gt;&lt;br style=&quot;font-size: 14px&quot;&gt;Some quick example text to build on the card title and make up the bulk of the card&#39;s content." style="html=1;shadow=0;dashed=0;shape=mxgraph.bootstrap.rrect;rSize=5;strokeColor=#FFBC26;html=1;whiteSpace=wrap;fillColor=#ffffff;fontColor=#FFBC26;verticalAlign=bottom;align=left;spacing=20;spacingBottom=0;fontSize=14;" parent="1" vertex="1">
          <mxGeometry x="1720" y="1300" width="250" height="180" as="geometry" />
        </mxCell>
        <mxCell id="-j0OVdetg2_iClO8KwTa-19" value="dhcp server" style="html=1;shadow=0;dashed=0;shape=mxgraph.bootstrap.topButton;rSize=5;perimeter=none;whiteSpace=wrap;fillColor=#F7F7F7;strokeColor=#FFBC26;fontColor=#6C767D;resizeWidth=1;fontSize=18;align=left;spacing=20;" parent="-j0OVdetg2_iClO8KwTa-18" vertex="1">
          <mxGeometry width="250" height="50" relative="1" as="geometry" />
        </mxCell>
        <mxCell id="-j0OVdetg2_iClO8KwTa-24" value="" style="endArrow=none;html=1;rounded=0;" parent="1" edge="1">
          <mxGeometry width="50" height="50" relative="1" as="geometry">
            <mxPoint x="1910" y="860" as="sourcePoint" />
            <mxPoint x="1570" y="450" as="targetPoint" />
          </mxGeometry>
        </mxCell>
        <mxCell id="nKHxWEIYoGZFJkrAHm3V-1" value="Text" style="text;html=1;align=center;verticalAlign=middle;whiteSpace=wrap;rounded=0;" vertex="1" parent="1">
          <mxGeometry x="880" y="580" width="60" height="30" as="geometry" />
        </mxCell>
      </root>
    </mxGraphModel>
  </diagram>
</mxfile>
